<svg width="90" height="56" viewBox="0 0 90 56" fill="none" xmlns="http://www.w3.org/2000/svg">
<path d="M45 35C45.1978 35 45.3911 34.9414 45.5556 34.8315C45.72 34.7216 45.8482 34.5654 45.9239 34.3827C45.9996 34.2 46.0194 33.9989 45.9808 33.8049C45.9422 33.6109 45.847 33.4327 45.7071 33.2929C45.5673 33.153 45.3891 33.0578 45.1951 33.0192C45.0011 32.9806 44.8 33.0004 44.6173 33.0761C44.4346 33.1518 44.2784 33.28 44.1685 33.4444C44.0586 33.6089 44 33.8022 44 34C44 34.2652 44.1054 34.5196 44.2929 34.7071C44.4804 34.8946 44.7348 35 45 35ZM50 35C50.1978 35 50.3911 34.9414 50.5556 34.8315C50.72 34.7216 50.8482 34.5654 50.9239 34.3827C50.9996 34.2 51.0194 33.9989 50.9808 33.8049C50.9422 33.6109 50.847 33.4327 50.7071 33.2929C50.5673 33.153 50.3891 33.0578 50.1951 33.0192C50.0011 32.9806 49.8 33.0004 49.6173 33.0761C49.4346 33.1518 49.2784 33.28 49.1685 33.4444C49.0586 33.6089 49 33.8022 49 34C49 34.2652 49.1054 34.5196 49.2929 34.7071C49.4804 34.8946 49.7348 35 50 35ZM50 31C50.1978 31 50.3911 30.9414 50.5556 30.8315C50.72 30.7216 50.8482 30.5654 50.9239 30.3827C50.9996 30.2 51.0194 29.9989 50.9808 29.8049C50.9422 29.6109 50.847 29.4327 50.7071 29.2929C50.5673 29.153 50.3891 29.0578 50.1951 29.0192C50.0011 28.9806 49.8 29.0004 49.6173 29.0761C49.4346 29.1518 49.2784 29.28 49.1685 29.4444C49.0586 29.6089 49 29.8022 49 30C49 30.2652 49.1054 30.5196 49.2929 30.7071C49.4804 30.8946 49.7348 31 50 31ZM45 31C45.1978 31 45.3911 30.9414 45.5556 30.8315C45.72 30.7216 45.8482 30.5654 45.9239 30.3827C45.9996 30.2 46.0194 29.9989 45.9808 29.8049C45.9422 29.6109 45.847 29.4327 45.7071 29.2929C45.5673 29.153 45.3891 29.0578 45.1951 29.0192C45.0011 28.9806 44.8 29.0004 44.6173 29.0761C44.4346 29.1518 44.2784 29.28 44.1685 29.4444C44.0586 29.6089 44 29.8022 44 30C44 30.2652 44.1054 30.5196 44.2929 30.7071C44.4804 30.8946 44.7348 31 45 31ZM52 19H51V18C51 17.7348 50.8946 17.4804 50.7071 17.2929C50.5196 17.1054 50.2652 17 50 17C49.7348 17 49.4804 17.1054 49.2929 17.2929C49.1054 17.4804 49 17.7348 49 18V19H41V18C41 17.7348 40.8946 17.4804 40.7071 17.2929C40.5196 17.1054 40.2652 17 40 17C39.7348 17 39.4804 17.1054 39.2929 17.2929C39.1054 17.4804 39 17.7348 39 18V19H38C37.2044 19 36.4413 19.3161 35.8787 19.8787C35.3161 20.4413 35 21.2044 35 22V36C35 36.7956 35.3161 37.5587 35.8787 38.1213C36.4413 38.6839 37.2044 39 38 39H52C52.7956 39 53.5587 38.6839 54.1213 38.1213C54.6839 37.5587 55 36.7956 55 36V22C55 21.2044 54.6839 20.4413 54.1213 19.8787C53.5587 19.3161 52.7956 19 52 19ZM53 36C53 36.2652 52.8946 36.5196 52.7071 36.7071C52.5196 36.8946 52.2652 37 52 37H38C37.7348 37 37.4804 36.8946 37.2929 36.7071C37.1054 36.5196 37 36.2652 37 36V27H53V36ZM53 25H37V22C37 21.7348 37.1054 21.4804 37.2929 21.2929C37.4804 21.1054 37.7348 21 38 21H39V22C39 22.2652 39.1054 22.5196 39.2929 22.7071C39.4804 22.8946 39.7348 23 40 23C40.2652 23 40.5196 22.8946 40.7071 22.7071C40.8946 22.5196 41 22.2652 41 22V21H49V22C49 22.2652 49.1054 22.5196 49.2929 22.7071C49.4804 22.8946 49.7348 23 50 23C50.2652 23 50.5196 22.8946 50.7071 22.7071C50.8946 22.5196 51 22.2652 51 22V21H52C52.2652 21 52.5196 21.1054 52.7071 21.2929C52.8946 21.4804 53 21.7348 53 22V25ZM40 31C40.1978 31 40.3911 30.9414 40.5556 30.8315C40.72 30.7216 40.8482 30.5654 40.9239 30.3827C40.9996 30.2 41.0194 29.9989 40.9808 29.8049C40.9422 29.6109 40.847 29.4327 40.7071 29.2929C40.5673 29.153 40.3891 29.0578 40.1951 29.0192C40.0011 28.9806 39.8 29.0004 39.6173 29.0761C39.4346 29.1518 39.2784 29.28 39.1685 29.4444C39.0586 29.6089 39 29.8022 39 30C39 30.2652 39.1054 30.5196 39.2929 30.7071C39.4804 30.8946 39.7348 31 40 31ZM40 35C40.1978 35 40.3911 34.9414 40.5556 34.8315C40.72 34.7216 40.8482 34.5654 40.9239 34.3827C40.9996 34.2 41.0194 33.9989 40.9808 33.8049C40.9422 33.6109 40.847 33.4327 40.7071 33.2929C40.5673 33.153 40.3891 33.0578 40.1951 33.0192C40.0011 32.9806 39.8 33.0004 39.6173 33.0761C39.4346 33.1518 39.2784 33.28 39.1685 33.4444C39.0586 33.6089 39 33.8022 39 34C39 34.2652 39.1054 34.5196 39.2929 34.7071C39.4804 34.8946 39.7348 35 40 35Z" fill="#999999"/>
</svg>
