<svg width="90" height="56" viewBox="0 0 90 56" fill="none" xmlns="http://www.w3.org/2000/svg">
<path d="M53 24L47 18.74C46.45 18.2481 45.7379 17.9761 45 17.9761C44.262 17.9761 43.55 18.2481 43 18.74L37 24C36.6823 24.2841 36.4289 24.6326 36.2564 25.0223C36.084 25.4119 35.9966 25.8339 36 26.26V35C36 35.7957 36.316 36.5587 36.8787 37.1213C37.4413 37.6839 38.2043 38 39 38H51C51.7956 38 52.5587 37.6839 53.1213 37.1213C53.6839 36.5587 54 35.7957 54 35V26.25C54.0019 25.8256 53.9138 25.4055 53.7414 25.0177C53.5691 24.6298 53.3163 24.283 53 24ZM47 36H43V31C43 30.7348 43.1053 30.4804 43.2929 30.2929C43.4804 30.1054 43.7348 30 44 30H46C46.2652 30 46.5195 30.1054 46.7071 30.2929C46.8946 30.4804 47 30.7348 47 31V36ZM52 35C52 35.2652 51.8946 35.5196 51.7071 35.7071C51.5195 35.8946 51.2652 36 51 36H49V31C49 30.2044 48.6839 29.4413 48.1213 28.8787C47.5587 28.3161 46.7956 28 46 28H44C43.2043 28 42.4413 28.3161 41.8787 28.8787C41.316 29.4413 41 30.2044 41 31V36H39C38.7348 36 38.4804 35.8946 38.2929 35.7071C38.1053 35.5196 38 35.2652 38 35V26.25C38.0002 26.108 38.0306 25.9677 38.0892 25.8384C38.1478 25.7091 38.2333 25.5937 38.34 25.5L44.34 20.25C44.5225 20.0897 44.7571 20.0013 45 20.0013C45.2429 20.0013 45.4775 20.0897 45.66 20.25L51.66 25.5C51.7666 25.5937 51.8521 25.7091 51.9108 25.8384C51.9694 25.9677 51.9998 26.108 52 26.25V35Z" fill="#FF8843"/>
</svg>
