<svg width="90" height="56" viewBox="0 0 90 56" fill="none" xmlns="http://www.w3.org/2000/svg">
<path d="M54.71 36.29L51 32.61C52.4401 30.8144 53.1375 28.5353 52.9488 26.2413C52.7601 23.9473 51.6997 21.8128 49.9855 20.2766C48.2714 18.7405 46.0338 17.9195 43.7329 17.9825C41.4321 18.0454 39.2427 18.9876 37.6152 20.6151C35.9876 22.2427 35.0455 24.432 34.9825 26.7329C34.9195 29.0338 35.7405 31.2714 37.2767 32.9855C38.8128 34.6997 40.9473 35.7601 43.2413 35.9488C45.5353 36.1375 47.8144 35.4401 49.61 34L53.29 37.68C53.383 37.7737 53.4936 37.8481 53.6154 37.8989C53.7373 37.9497 53.868 37.9758 54 37.9758C54.132 37.9758 54.2627 37.9497 54.3846 37.8989C54.5065 37.8481 54.6171 37.7737 54.71 37.68C54.8903 37.4935 54.991 37.2443 54.991 36.985C54.991 36.7257 54.8903 36.4765 54.71 36.29ZM44 34C42.6156 34 41.2622 33.5895 40.111 32.8203C38.9599 32.0511 38.0627 30.9579 37.5329 29.6788C37.0031 28.3997 36.8644 26.9922 37.1345 25.6344C37.4046 24.2765 38.0713 23.0292 39.0503 22.0502C40.0292 21.0713 41.2765 20.4046 42.6344 20.1345C43.9923 19.8644 45.3997 20.003 46.6788 20.5328C47.9579 21.0627 49.0511 21.9599 49.8203 23.111C50.5895 24.2621 51 25.6155 51 27C51 28.8565 50.2625 30.637 48.9498 31.9497C47.637 33.2625 45.8565 34 44 34Z" fill="#999999"/>
</svg>
