<svg width="90" height="56" viewBox="0 0 90 56" fill="none" xmlns="http://www.w3.org/2000/svg">
<path d="M52.9 28.66C52.7397 28.4775 52.6513 28.2429 52.6513 28C52.6513 27.7571 52.7397 27.5225 52.9 27.34L54.18 25.9C54.3211 25.7427 54.4087 25.5447 54.4302 25.3345C54.4518 25.1243 54.4062 24.9127 54.3 24.73L52.3 21.27C52.1949 21.0875 52.0349 20.9429 51.8428 20.8567C51.6506 20.7705 51.4362 20.7472 51.23 20.79L49.35 21.17C49.1108 21.2194 48.8618 21.1796 48.6499 21.058C48.438 20.9364 48.278 20.7415 48.2 20.51L47.59 18.68C47.5229 18.4814 47.3951 18.3089 47.2246 18.1868C47.0542 18.0648 46.8497 17.9995 46.64 18H42.64C42.422 17.9886 42.2062 18.0489 42.0256 18.1717C41.845 18.2945 41.7096 18.473 41.64 18.68L41.08 20.51C41.002 20.7415 40.842 20.9364 40.6301 21.058C40.4183 21.1796 40.1692 21.2194 39.93 21.17L38 20.79C37.8046 20.7624 37.6053 20.7932 37.4274 20.8786C37.2494 20.9641 37.1007 21.1002 37 21.27L35 24.73C34.8912 24.9107 34.8422 25.1211 34.8602 25.3312C34.8782 25.5414 34.9621 25.7404 35.1 25.9L36.37 27.34C36.5303 27.5225 36.6188 27.7571 36.6188 28C36.6188 28.2429 36.5303 28.4775 36.37 28.66L35.1 30.1C34.9621 30.2596 34.8782 30.4586 34.8602 30.6688C34.8422 30.8789 34.8912 31.0894 35 31.27L37 34.73C37.1051 34.9125 37.2651 35.0571 37.4573 35.1433C37.6494 35.2295 37.8638 35.2528 38.07 35.21L39.95 34.83C40.1892 34.7806 40.4383 34.8204 40.6501 34.942C40.862 35.0636 41.022 35.2585 41.1 35.49L41.71 37.32C41.7796 37.527 41.915 37.7055 42.0956 37.8283C42.2762 37.9511 42.492 38.0114 42.71 38H46.71C46.9197 38.0005 47.1242 37.9352 47.2946 37.8132C47.4651 37.6911 47.5929 37.5186 47.66 37.32L48.27 35.49C48.348 35.2585 48.508 35.0636 48.7199 34.942C48.9318 34.8204 49.1808 34.7806 49.42 34.83L51.3 35.21C51.5062 35.2528 51.7206 35.2295 51.9128 35.1433C52.1049 35.0571 52.2649 34.9125 52.37 34.73L54.37 31.27C54.4762 31.0873 54.5218 30.8757 54.5002 30.6655C54.4787 30.4553 54.3911 30.2573 54.25 30.1L52.9 28.66ZM51.41 30L52.21 30.9L50.93 33.12L49.75 32.88C49.0298 32.7328 48.2806 32.8551 47.6446 33.2238C47.0086 33.5925 46.5302 34.1818 46.3 34.88L45.92 36H43.36L43 34.86C42.7699 34.1618 42.2914 33.5725 41.6554 33.2038C41.0194 32.8351 40.2702 32.7128 39.55 32.86L38.37 33.1L37.07 30.89L37.87 29.99C38.362 29.44 38.634 28.7279 38.634 27.99C38.634 27.2521 38.362 26.54 37.87 25.99L37.07 25.09L38.35 22.89L39.53 23.13C40.2502 23.2772 40.9994 23.1549 41.6354 22.7862C42.2714 22.4175 42.7499 21.8282 42.98 21.13L43.36 20H45.92L46.3 21.14C46.5302 21.8382 47.0086 22.4275 47.6446 22.7962C48.2806 23.1649 49.0298 23.2872 49.75 23.14L50.93 22.9L52.21 25.12L51.41 26.02C50.9236 26.5688 50.655 27.2767 50.655 28.01C50.655 28.7433 50.9236 29.4512 51.41 30ZM44.64 24C43.8489 24 43.0755 24.2346 42.4177 24.6741C41.7599 25.1136 41.2473 25.7384 40.9445 26.4693C40.6417 27.2002 40.5625 28.0044 40.7169 28.7804C40.8712 29.5563 41.2522 30.269 41.8116 30.8284C42.371 31.3878 43.0837 31.7688 43.8597 31.9231C44.6356 32.0775 45.4398 31.9983 46.1708 31.6955C46.9017 31.3928 47.5264 30.8801 47.9659 30.2223C48.4054 29.5645 48.64 28.7911 48.64 28C48.64 26.9391 48.2186 25.9217 47.4684 25.1716C46.7183 24.4214 45.7009 24 44.64 24ZM44.64 30C44.2445 30 43.8578 29.8827 43.5289 29.6629C43.2 29.4432 42.9436 29.1308 42.7923 28.7654C42.6409 28.3999 42.6013 27.9978 42.6784 27.6098C42.7556 27.2219 42.9461 26.8655 43.2258 26.5858C43.5055 26.3061 43.8619 26.1156 44.2498 26.0384C44.6378 25.9613 45.0399 26.0009 45.4054 26.1522C45.7708 26.3036 46.0832 26.56 46.303 26.8889C46.5227 27.2178 46.64 27.6044 46.64 28C46.64 28.5304 46.4293 29.0391 46.0542 29.4142C45.6792 29.7893 45.1705 30 44.64 30Z" fill="#999999"/>
</svg>
